{
	"asset":{
		"generator":"Khronos glTF Blender I/O v3.6.28",
		"version":"2.0"
	},
	"scene":0,
	"scenes":[
		{
			"name":"Scene",
			"nodes":[
				0
			]
		}
	],
	"nodes":[
		{
			"mesh":0,
			"name":"earth 1",
			"rotation":[
				0,
				0.7071067094802856,
				0,
				0.7071068286895752
			]
		}
	],
	"materials":[
		{
			"alphaMode":"BLEND",
			"doubleSided":true,
			"name":"earth 1",
			"pbrMetallicRoughness":{
				"baseColorTexture":{
					"index":0
				},
				"metallicFactor":0,
				"metallicRoughnessTexture":{
					"index":1
				}
			}
		}
	],
	"meshes":[
		{
			"name":"earth 1",
			"primitives":[
				{
					"attributes":{
						"POSITION":0,
						"NORMAL":1,
						"TEXCOORD_0":2
					},
					"indices":3,
					"material":0
				}
			]
		}
	],
	"textures":[
		{
			"sampler":0,
			"source":0
		},
		{
			"sampler":0,
			"source":1
		}
	],
	"images":[
		{
			"mimeType":"image/png",
			"name":"2k_earth_daymap",
			"uri":"textures/2k_earth_daymap.png"
		},
		{
			"mimeType":"image/png",
			"name":"2k_earth_daymap_gloss2",
			"uri":"textures/2k_earth_daymap_gloss2.png"
		}
	],
	"accessors":[
		{
			"bufferView":0,
			"componentType":5126,
			"count":8385,
			"max":[
				0.31830984354019165,
				0.318310022354126,
				0
			],
			"min":[
				-0.3183099031448364,
				-0.3183099925518036,
				-0.6366198062896729
			],
			"type":"VEC3"
		},
		{
			"bufferView":1,
			"componentType":5126,
			"count":8385,
			"type":"VEC3"
		},
		{
			"bufferView":2,
			"componentType":5126,
			"count":8385,
			"type":"VEC2"
		},
		{
			"bufferView":3,
			"componentType":5123,
			"count":48396,
			"type":"SCALAR"
		}
	],
	"bufferViews":[
		{
			"buffer":0,
			"byteLength":100620,
			"byteOffset":0,
			"target":34962
		},
		{
			"buffer":0,
			"byteLength":100620,
			"byteOffset":100620,
			"target":34962
		},
		{
			"buffer":0,
			"byteLength":67080,
			"byteOffset":201240,
			"target":34962
		},
		{
			"buffer":0,
			"byteLength":96792,
			"byteOffset":268320,
			"target":34963
		}
	],
	"samplers":[
		{
			"magFilter":9729,
			"minFilter":9987,
			"wrapS":33071,
			"wrapT":33071
		}
	],
	"buffers":[
		{
			"byteLength":365112,
			"uri":"earth.bin"
		}
	]
}
